<svg xmlns="http://www.w3.org/2000/svg" viewBox="0 0 800 600" width="800" height="600">
  <!-- Sky -->
  <rect x="0" y="0" width="800" height="600" fill="#f8f9fa"/>
  
  <!-- Ground -->
  <path d="M0,450 C100,420 200,480 400,450 C600,420 700,440 800,430 L800,600 L0,600 Z" fill="#e0f2f1"/>
  
  <!-- Modern Waste-to-Energy Plant -->
  <g transform="translate(100, 300)">
    <!-- Main Building -->
    <rect x="200" y="0" width="300" height="150" rx="10" ry="10" fill="#f5f5f5" stroke="#e0e0e0" stroke-width="2"/>
    
    <!-- Roof -->
    <path d="M180,0 L350,-50 L520,0 Z" fill="#2ecc71" stroke="#27ae60" stroke-width="2"/>
    
    <!-- Windows -->
    <rect x="230" y="30" width="40" height="40" rx="5" ry="5" fill="#3498db" opacity="0.7"/>
    <rect x="290" y="30" width="40" height="40" rx="5" ry="5" fill="#3498db" opacity="0.7"/>
    <rect x="350" y="30" width="40" height="40" rx="5" ry="5" fill="#3498db" opacity="0.7"/>
    <rect x="410" y="30" width="40" height="40" rx="5" ry="5" fill="#3498db" opacity="0.7"/>
    
    <!-- Door -->
    <rect x="330" y="90" width="40" height="60" rx="5" ry="5" fill="#34495e"/>
    
    <!-- Smokestack with Clean Emissions -->
    <rect x="450" y="-100" width="30" height="100" fill="#95a5a6" stroke="#7f8c8d" stroke-width="2"/>
    <path d="M450,-120 C450,-130 480,-130 480,-120 L480,-100 L450,-100 Z" fill="#95a5a6" stroke="#7f8c8d" stroke-width="2"/>
    
    <!-- Clean Emissions/Steam -->
    <path d="M465,-130 C480,-150 490,-140 480,-160 C470,-180 490,-170 485,-190 C500,-180 510,-200 515,-170" stroke="#ecf0f1" stroke-width="5" fill="none" opacity="0.7"/>
    
    <!-- Solar Panels on Roof -->
    <g transform="translate(250, -40)">
      <rect x="0" y="0" width="20" height="30" fill="#2c3e50" stroke="#34495e" stroke-width="1"/>
      <rect x="25" y="0" width="20" height="30" fill="#2c3e50" stroke="#34495e" stroke-width="1"/>
      <rect x="50" y="0" width="20" height="30" fill="#2c3e50" stroke="#34495e" stroke-width="1"/>
      <rect x="75" y="0" width="20" height="30" fill="#2c3e50" stroke="#34495e" stroke-width="1"/>
      <rect x="100" y="0" width="20" height="30" fill="#2c3e50" stroke="#34495e" stroke-width="1"/>
    </g>
  </g>
  
  <!-- Waste Trucks -->
  <g transform="translate(100, 400)">
    <!-- Truck Body -->
    <rect x="0" y="0" width="80" height="40" rx="5" ry="5" fill="#3498db" stroke="#2980b9" stroke-width="2"/>
    <rect x="80" y="10" width="40" height="30" rx="2" ry="2" fill="#3498db" stroke="#2980b9" stroke-width="2"/>
    
    <!-- Truck Cab -->
    <rect x="120" y="15" width="30" height="25" rx="5" ry="5" fill="#3498db" stroke="#2980b9" stroke-width="2"/>
    <rect x="125" y="20" width="15" height="10" fill="#a5d8ff" stroke="#2980b9" stroke-width="1"/>
    
    <!-- Wheels -->
    <circle cx="30" cy="45" r="10" fill="#34495e" stroke="#2c3e50" stroke-width="2"/>
    <circle cx="100" cy="45" r="10" fill="#34495e" stroke="#2c3e50" stroke-width="2"/>
    <circle cx="130" cy="45" r="8" fill="#34495e" stroke="#2c3e50" stroke-width="2"/>
  </g>
  
  <!-- Recycling Bins -->
  <g transform="translate(600, 400)">
    <rect x="0" y="0" width="30" height="40" rx="3" ry="3" fill="#2ecc71" stroke="#27ae60" stroke-width="2"/>
    <rect x="40" y="0" width="30" height="40" rx="3" ry="3" fill="#3498db" stroke="#2980b9" stroke-width="2"/>
    <rect x="80" y="0" width="30" height="40" rx="3" ry="3" fill="#f1c40f" stroke="#f39c12" stroke-width="2"/>
    
    <!-- Recycling Symbols -->
    <path d="M15,15 L25,15 L20,25 Z" fill="none" stroke="#ffffff" stroke-width="1.5"/>
    <path d="M10,25 L30,25 L25,15 L15,15 Z" fill="none" stroke="#ffffff" stroke-width="1.5"/>
    
    <path d="M55,15 L65,15 L60,25 Z" fill="none" stroke="#ffffff" stroke-width="1.5"/>
    <path d="M50,25 L70,25 L65,15 L55,15 Z" fill="none" stroke="#ffffff" stroke-width="1.5"/>
    
    <path d="M95,15 L105,15 L100,25 Z" fill="none" stroke="#ffffff" stroke-width="1.5"/>
    <path d="M90,25 L110,25 L105,15 L95,15 Z" fill="none" stroke="#ffffff" stroke-width="1.5"/>
  </g>
  
  <!-- Energy Distribution - Power Lines -->
  <g transform="translate(400, 280)">
    <!-- Power Line Tower -->
    <line x1="0" y1="0" x2="-15" y2="50" stroke="#7f8c8d" stroke-width="4"/>
    <line x1="0" y1="0" x2="15" y2="50" stroke="#7f8c8d" stroke-width="4"/>
    <line x1="-15" y1="50" x2="15" y2="50" stroke="#7f8c8d" stroke-width="4"/>
    
    <!-- Cross Support -->
    <line x1="-30" y1="20" x2="30" y2="20" stroke="#7f8c8d" stroke-width="3"/>
    
    <!-- Power Lines -->
    <path d="M-30,20 C-50,10 -70,30 -90,15" stroke="#95a5a6" stroke-width="2" fill="none"/>
    <path d="M-25,20 C-45,5 -65,25 -85,10" stroke="#95a5a6" stroke-width="2" fill="none"/>
    
    <path d="M30,20 C50,10 70,30 90,15" stroke="#95a5a6" stroke-width="2" fill="none"/>
    <path d="M25,20 C45,5 65,25 85,10" stroke="#95a5a6" stroke-width="2" fill="none"/>
  </g>
  
  <!-- Green Energy Symbols -->
  <g transform="translate(650, 150)">
    <!-- Sun -->
    <circle cx="0" cy="0" r="25" fill="#f1c40f" stroke="#f39c12" stroke-width="2"/>
    <line x1="0" y1="-35" x2="0" y2="-30" stroke="#f39c12" stroke-width="3"/>
    <line x1="0" y1="30" x2="0" y2="35" stroke="#f39c12" stroke-width="3"/>
    <line x1="-35" y1="0" x2="-30" y2="0" stroke="#f39c12" stroke-width="3"/>
    <line x1="30" y1="0" x2="35" y2="0" stroke="#f39c12" stroke-width="3"/>
    <line x1="-25" y1="-25" x2="-20" y2="-20" stroke="#f39c12" stroke-width="3"/>
    <line x1="20" y1="20" x2="25" y2="25" stroke="#f39c12" stroke-width="3"/>
    <line x1="-25" y1="25" x2="-20" y2="20" stroke="#f39c12" stroke-width="3"/>
    <line x1="20" y1="-20" x2="25" y2="-25" stroke="#f39c12" stroke-width="3"/>
  </g>
  
  <!-- Trees -->
  <g transform="translate(50, 350)">
    <path d="M0,0 L-20,50 L20,50 Z" fill="#27ae60"/>
    <path d="M0,-20 L-25,40 L25,40 Z" fill="#2ecc71"/>
    <path d="M0,-40 L-30,30 L30,30 Z" fill="#2ecc71"/>
    <rect x="-5" y="50" width="10" height="20" fill="#795548"/>
  </g>
  
  <g transform="translate(750, 370)">
    <path d="M0,0 L-20,50 L20,50 Z" fill="#27ae60"/>
    <path d="M0,-20 L-25,40 L25,40 Z" fill="#2ecc71"/>
    <path d="M0,-40 L-30,30 L30,30 Z" fill="#2ecc71"/>
    <rect x="-5" y="50" width="10" height="20" fill="#795548"/>
  </g>
  
  <!-- Energy Bolts -->
  <path d="M400,200 L380,230 L395,230 L375,270 L410,220 L390,220 L410,190 Z" fill="#f39c12" stroke="#e67e22" stroke-width="1"/>
  <path d="M200,180 L180,210 L195,210 L175,250 L210,200 L190,200 L210,170 Z" fill="#f39c12" stroke="#e67e22" stroke-width="1" transform="scale(0.7)"/>
  <path d="M600,150 L580,180 L595,180 L575,220 L610,170 L590,170 L610,140 Z" fill="#f39c12" stroke="#e67e22" stroke-width="1" transform="scale(0.6)"/>
</svg> 