<svg xmlns="http://www.w3.org/2000/svg" viewBox="0 0 200 200" width="200" height="200">
  <!-- Background Circle -->
  <circle cx="100" cy="100" r="90" fill="none"/>
  
  <!-- Recycling Symbol (Modified) -->
  <g fill="none" stroke-width="8" stroke-linecap="round" stroke-linejoin="round">
    <!-- Arrow 1 - White -->
    <path d="M100,40 L140,100 L120,100 L100,65 L80,100 L60,100 Z" stroke="#ffffff" fill="#ffffff" transform="rotate(0 100 100)"/>
    
    <!-- Arrow 2 - Light Blue tint -->
    <path d="M100,40 L140,100 L120,100 L100,65 L80,100 L60,100 Z" stroke="#ecf0f1" fill="#ecf0f1" transform="rotate(120 100 100)"/>
    
    <!-- Arrow 3 - Light Green tint -->
    <path d="M100,40 L140,100 L120,100 L100,65 L80,100 L60,100 Z" stroke="#ecf0f1" fill="#ecf0f1" transform="rotate(240 100 100)"/>
  </g>
  
  <!-- Energy Bolt -->
  <path d="M100,75 L85,120 L105,120 L90,160 L120,105 L100,105 L115,75 Z" fill="#f1c40f" stroke="#ffffff" stroke-width="2"/>
</svg> 